<svg width="1440" height="591" viewBox="0 0 1440 591" fill="none" xmlns="http://www.w3.org/2000/svg">
<g clip-path="url(#clip0_1525_13260)">
<rect width="1440" height="591" fill="#E4F2FF"/>
<line x1="309.123" y1="-196.73" x2="309.123" y2="619.54" stroke="#D2E5F7" stroke-width="1.34321"/>
<line x1="704.644" y1="-196.73" x2="704.644" y2="619.54" stroke="#D2E5F7" stroke-width="1.34321"/>
<line x1="1071.91" y1="-196.73" x2="1071.91" y2="619.54" stroke="#D2E5F7" stroke-width="1.34321"/>
<line x1="1439.18" y1="-196.73" x2="1439.18" y2="619.54" stroke="#D2E5F7" stroke-width="1.34321"/>
<line x1="-30.5605" y1="279.852" x2="1495.01" y2="279.852" stroke="#D2E5F7" stroke-width="1.34321"/>
<line x1="83.1189" y1="-196.73" x2="83.1188" y2="619.54" stroke="#D2E5F7" stroke-width="1.34321"/>
<line x1="478.636" y1="-196.73" x2="478.636" y2="619.54" stroke="#D2E5F7" stroke-width="1.34321"/>
<line x1="845.9" y1="-196.73" x2="845.9" y2="619.54" stroke="#D2E5F7" stroke-width="1.34321"/>
<line x1="1213.17" y1="-196.73" x2="1213.17" y2="619.54" stroke="#D2E5F7" stroke-width="1.34321"/>
<line x1="-30.5605" y1="85.1096" x2="1495.01" y2="85.1096" stroke="#D2E5F7" stroke-width="1.34321"/>
<line x1="-30.5605" y1="505.864" x2="1495.01" y2="505.864" stroke="#D2E5F7" stroke-width="1.34321"/>
<line x1="196.119" y1="-196.73" x2="196.119" y2="619.54" stroke="#D2E5F7" stroke-width="1.34321"/>
<line x1="591.64" y1="-196.73" x2="591.64" y2="619.54" stroke="#D2E5F7" stroke-width="1.34321"/>
<line x1="958.904" y1="-196.73" x2="958.904" y2="619.54" stroke="#D2E5F7" stroke-width="1.34321"/>
<line x1="1326.17" y1="-196.73" x2="1326.17" y2="619.54" stroke="#D2E5F7" stroke-width="1.34321"/>
<line x1="-30.5605" y1="392.86" x2="1495.01" y2="392.86" stroke="#D2E5F7" stroke-width="1.34321"/>
<line x1="-30.5605" y1="198.114" x2="1495.01" y2="198.114" stroke="#D2E5F7" stroke-width="1.34321"/>
<line x1="252.623" y1="-196.73" x2="252.623" y2="619.54" stroke="#D2E5F7" stroke-width="1.34321"/>
<line x1="648.144" y1="-196.73" x2="648.144" y2="619.54" stroke="#D2E5F7" stroke-width="1.34321"/>
<line x1="1015.41" y1="-196.73" x2="1015.41" y2="619.54" stroke="#D2E5F7" stroke-width="1.34321"/>
<line x1="1382.67" y1="-196.73" x2="1382.67" y2="619.54" stroke="#D2E5F7" stroke-width="1.34321"/>
<line x1="-30.5605" y1="336.36" x2="1495.01" y2="336.36" stroke="#D2E5F7" stroke-width="1.34321"/>
<line x1="26.6111" y1="-196.73" x2="26.611" y2="619.54" stroke="#D2E5F7" stroke-width="1.34321"/>
<line x1="0.321996" y1="-196.73" x2="0.321959" y2="619.54" stroke="#D2E5F7" stroke-width="1.34321"/>
<line x1="789.398" y1="-196.73" x2="789.398" y2="619.54" stroke="#D2E5F7" stroke-width="1.34321"/>
<line x1="1156.67" y1="-196.73" x2="1156.67" y2="619.54" stroke="#D2E5F7" stroke-width="1.34321"/>
<line x1="-30.5605" y1="141.614" x2="1495.01" y2="141.614" stroke="#D2E5F7" stroke-width="1.34321"/>
<line x1="-30.5605" y1="562.367" x2="1495.01" y2="562.367" stroke="#D2E5F7" stroke-width="1.34321"/>
<line x1="139.619" y1="-196.73" x2="139.619" y2="619.54" stroke="#D2E5F7" stroke-width="1.34321"/>
<line x1="535.134" y1="-196.73" x2="535.134" y2="619.54" stroke="#D2E5F7" stroke-width="1.34321"/>
<line x1="902.404" y1="-196.73" x2="902.404" y2="619.54" stroke="#D2E5F7" stroke-width="1.34321"/>
<line x1="1269.67" y1="-196.73" x2="1269.67" y2="619.54" stroke="#D2E5F7" stroke-width="1.34321"/>
<line x1="-30.5605" y1="28.6096" x2="1495.01" y2="28.6096" stroke="#D2E5F7" stroke-width="1.34321"/>
<line x1="-30.5605" y1="449.36" x2="1495.01" y2="449.36" stroke="#D2E5F7" stroke-width="1.34321"/>
<line x1="337.379" y1="-196.73" x2="337.379" y2="619.54" stroke="#D2E5F7" stroke-width="1.34321"/>
<line x1="732.894" y1="-196.73" x2="732.894" y2="619.54" stroke="#D2E5F7" stroke-width="1.34321"/>
<line x1="1100.16" y1="-196.73" x2="1100.16" y2="619.54" stroke="#D2E5F7" stroke-width="1.34321"/>
<line x1="-30.5605" y1="251.606" x2="1495.01" y2="251.606" stroke="#D2E5F7" stroke-width="1.34321"/>
<line x1="111.365" y1="-196.73" x2="111.365" y2="619.54" stroke="#D2E5F7" stroke-width="1.34321"/>
<line x1="506.886" y1="-196.73" x2="506.886" y2="619.54" stroke="#D2E5F7" stroke-width="1.34321"/>
<line x1="874.152" y1="-196.73" x2="874.152" y2="619.54" stroke="#D2E5F7" stroke-width="1.34321"/>
<line x1="1241.42" y1="-196.73" x2="1241.42" y2="619.54" stroke="#D2E5F7" stroke-width="1.34321"/>
<line x1="-30.5605" y1="56.8596" x2="1495.01" y2="56.8596" stroke="#D2E5F7" stroke-width="1.34321"/>
<line x1="-30.5605" y1="477.614" x2="1495.01" y2="477.614" stroke="#D2E5F7" stroke-width="1.34321"/>
<line x1="224.369" y1="-196.73" x2="224.369" y2="619.54" stroke="#D2E5F7" stroke-width="1.34321"/>
<line x1="619.888" y1="-196.73" x2="619.888" y2="619.54" stroke="#D2E5F7" stroke-width="1.34321"/>
<line x1="987.158" y1="-196.73" x2="987.158" y2="619.54" stroke="#D2E5F7" stroke-width="1.34321"/>
<line x1="1354.43" y1="-196.73" x2="1354.43" y2="619.54" stroke="#D2E5F7" stroke-width="1.34321"/>
<line x1="-30.5605" y1="364.61" x2="1495.01" y2="364.61" stroke="#D2E5F7" stroke-width="1.34321"/>
<line x1="393.879" y1="-196.73" x2="393.879" y2="619.54" stroke="#D2E5F7" stroke-width="1.34321"/>
<line x1="761.144" y1="-196.73" x2="761.144" y2="619.54" stroke="#D2E5F7" stroke-width="1.34321"/>
<line x1="1128.41" y1="-196.73" x2="1128.41" y2="619.54" stroke="#D2E5F7" stroke-width="1.34321"/>
<line x1="-30.5605" y1="169.864" x2="1495.01" y2="169.864" stroke="#D2E5F7" stroke-width="1.34321"/>
<line x1="-30.5605" y1="590.614" x2="1495.01" y2="590.614" stroke="#D2E5F7" stroke-width="1.34321"/>
<line x1="280.873" y1="-196.73" x2="280.873" y2="619.54" stroke="#D2E5F7" stroke-width="1.34321"/>
<line x1="676.394" y1="-196.73" x2="676.394" y2="619.54" stroke="#D2E5F7" stroke-width="1.34321"/>
<line x1="1043.66" y1="-196.73" x2="1043.66" y2="619.54" stroke="#D2E5F7" stroke-width="1.34321"/>
<line x1="1410.93" y1="-196.73" x2="1410.93" y2="619.54" stroke="#D2E5F7" stroke-width="1.34321"/>
<line x1="-30.5605" y1="308.106" x2="1495.01" y2="308.106" stroke="#D2E5F7" stroke-width="1.34321"/>
<line x1="54.865" y1="-196.73" x2="54.8649" y2="619.54" stroke="#D2E5F7" stroke-width="1.34321"/>
<line x1="450.386" y1="-196.73" x2="450.386" y2="619.54" stroke="#D2E5F7" stroke-width="1.34321"/>
<line x1="422.484" y1="-196.73" x2="422.484" y2="619.54" stroke="#D2E5F7" stroke-width="1.34321"/>
<line x1="817.648" y1="-196.73" x2="817.648" y2="619.54" stroke="#D2E5F7" stroke-width="1.34321"/>
<line x1="1184.91" y1="-196.73" x2="1184.91" y2="619.54" stroke="#D2E5F7" stroke-width="1.34321"/>
<line x1="-30.5605" y1="113.36" x2="1495.01" y2="113.36" stroke="#D2E5F7" stroke-width="1.34321"/>
<line x1="-30.5605" y1="534.121" x2="1495.01" y2="534.121" stroke="#D2E5F7" stroke-width="1.34321"/>
<line x1="167.871" y1="-196.73" x2="167.871" y2="619.54" stroke="#D2E5F7" stroke-width="1.34321"/>
<line x1="563.386" y1="-196.73" x2="563.386" y2="619.54" stroke="#D2E5F7" stroke-width="1.34321"/>
<line x1="930.652" y1="-196.73" x2="930.652" y2="619.54" stroke="#D2E5F7" stroke-width="1.34321"/>
<line x1="1297.92" y1="-196.73" x2="1297.92" y2="619.54" stroke="#D2E5F7" stroke-width="1.34321"/>
<line x1="-30.5605" y1="0.355738" x2="1495.01" y2="0.35574" stroke="#D2E5F7" stroke-width="1.34321"/>
<line x1="-30.5605" y1="421.11" x2="1495.01" y2="421.11" stroke="#D2E5F7" stroke-width="1.34321"/>
<line x1="365.627" y1="-196.73" x2="365.627" y2="619.54" stroke="#D2E5F7" stroke-width="1.34321"/>
<line x1="-30.5605" y1="223.352" x2="1495.01" y2="223.352" stroke="#D2E5F7" stroke-width="1.34321"/>
<line x1="-30.5605" y1="449.36" x2="1495.01" y2="449.36" stroke="#D2E5F7" stroke-width="1.34321"/>
<line x1="-30.5605" y1="562.367" x2="1495.01" y2="562.367" stroke="#D2E5F7" stroke-width="1.34321"/>
</g>
<defs>
<clipPath id="clip0_1525_13260">
<rect width="1440" height="591" fill="white"/>
</clipPath>
</defs>
</svg>
